# xmcd
# 
# Track frame offsets:
#     150
#     16276
#     33413
#     62740
#     89992
#     113795
#     132402
#     152433
#     174051
# 
# Disc length: 2569
# 
# Revision: 2
# Processed by: cddbd v1.5.1PL0 Copyright (c) Steve Scherf et al.
# Submitted via: BonkEnc v1.0beta2
# 
DISCID=6d0a0709
DTITLE=The Ecstasy Of St. Theresa - rmx´s dumb it
DYEAR=2000
DGENRE=New Age
TTITLE0=B.P.M. Brothers
TTITLE1=The Tchendos
TTITLE2=DJ Touchwood
TTITLE3=Double L
TTITLE4=Lazy Jimmy
TTITLE5=Carlos de Paolo
TTITLE6=DJ Drash
TTITLE7=Servis
TTITLE8=Neon - Silencer
EXTD=YEAR: 2000
EXTT0=
EXTT1=
EXTT2=
EXTT3=
EXTT4=
EXTT5=
EXTT6=
EXTT7=
EXTT8=
PLAYORDER=
